<?xml version="1.0" encoding="UTF-8"?> <svg xmlns="http://www.w3.org/2000/svg" width="843" height="980.0000000000001"><defs><linearGradient id="imagebot_8" y2="1"><stop offset="0" stop-color="#e92d28"></stop><stop offset="1" stop-color="#6d0018"></stop></linearGradient></defs><metadata>Svg Vector Icons : http://www.onlinewebfonts.com/icon</metadata><g><title>Layer 1</title><g transform="translate(-78.5 -10)" id="imagebot_1"><path stroke="#d4ffaa" fill="url(#imagebot_8)" id="imagebot_2" d="M489.6,184.6C719.8,181.9 913.2,241.9 921.3,318.3C929.4,394.8 749,459.1 518.8,461.7C288.6,464.5 95.1,404.5 87.1,328C79,251.6 259.3,187.3 489.6,184.6z"></path><path stroke="#d4ffaa" fill="url(#imagebot_8)" id="imagebot_3" d="M87.1,501.5C86.7,498.2 86.7,494.9 87.1,491.7L87.1,340.2L87.3,340.2C86.9,343.4 87,346.6 87.3,349.9C95.3,426.4 288.8,486.3 519,483.7C739.3,481.1 913.9,422.2 921.5,350.1L921.5,501.6L921.2,501.6C913.8,573.7 739.1,632.8 518.7,635.4C288.6,637.9 95.1,578 87.1,501.5L87.1,501.5z"></path><path stroke="#d4ffaa" fill="url(#imagebot_8)" id="imagebot_4" d="M87.1,678.8C86.7,675.5 86.7,672.2 87.1,669L87.1,517.5L87.3,517.5C86.9,520.7 87,524 87.3,527.2C95.3,603.7 288.8,663.6 519,661C739.3,658.4 913.9,599.4 921.5,527.4L921.5,678.8L921.2,678.8C913.9,751 739.2,810 518.8,812.6C288.6,815.2 95.2,755.3 87.1,678.8L87.1,678.8z"></path><path stroke="#d4ffaa" fill="url(#imagebot_8)" id="imagebot_5" d="M87.1,856.1C86.7,852.8 86.7,849.5 87.1,846.3L87.1,694.8L87.3,694.8C86.9,698 87,701.3 87.3,704.5C95.3,781 288.8,840.9 519,838.3C739.3,835.7 913.9,776.8 921.5,704.7L921.5,856.2L921.2,856.2C913.8,928.4 739.1,987.4 518.7,990C288.6,992.6 95.2,932.6 87.1,856.1z"></path><path stroke="#d4ffaa" fill="url(#imagebot_8)" id="imagebot_6" d="M700.7,10L683,10L683,126.2L766.1,126.2L777.4,107.2L700.8,107.2L700.8,10L700.7,10zM458.3,15.8L393.5,126.3L414.9,126.3L434.4,92.9L476.2,92.9L487.2,73.9L445.4,73.9L468.2,35.6L521.5,126.2L543,126.2L477.6,15.5C473.6,8.3 462.9,8.3 458.3,15.8L458.3,15.8zM584,29L658.3,29L669.3,10.1L583.5,10.1C553.6,10.1 533.9,36.1 533.9,68.2C533.9,100.3 553.6,126.3 583.5,126.3L656.1,126.2L667.5,107.4L584,107.4C563.9,107.4 552.1,89.9 552.1,68.2C552.1,46.5 563.8,29 584,29zM204.6,10L128,10C98.1,10 78.5,36 78.5,68.1C78.5,100.2 98.2,126.2 128,126.2L204.6,126.2C234.5,126.2 254.1,100.2 254.1,68.1C254.1,36 234.4,10 204.6,10L204.6,10zM204.6,107.3L128,107.3C107.9,107.3 96.1,89.8 96.1,68.1S107.8,29 128,29L204.6,29C224.7,29 236.5,46.5 236.5,68.2S224.7,107.3 204.6,107.3zM796.8,77.3L890.4,77.3L901.7,58.3L796.8,58.3C799.8,41.5 810.9,28.9 827.9,28.9L902.3,28.9L913.3,10L827.5,10C797.6,10 778,36 778,68.1S797.7,126.2 827.5,126.2L900.1,126.1L911.5,107.3L828,107.3C810.7,107.3 799.7,94.5 796.8,77.3L796.8,77.3zM354.9,79C372.6,79 387,63.6 387,44.5C387,25.5 372.6,10 354.9,10L264.7,10L264.7,126.2L284.5,126.2L284.5,29L354.8,29C362.8,29 369.3,35.9 369.3,44.6C369.3,53.2 362.8,60.2 354.8,60.2L298.4,60.2L362,126.2L387.6,126.2L342.1,79.2L354.9,79z"></path></g></g></svg> 